<?xml version="1.0" encoding="UTF-8"?>
<!DOCTYPE svg PUBLIC "-//W3C//DTD SVG 1.1//EN" "http://www.w3.org/Graphics/SVG/1.1/DTD/svg11.dtd">
<!-- Creator: CorelDRAW X6 -->
<svg xmlns="http://www.w3.org/2000/svg" xml:space="preserve" width="132.74mm" height="108.901mm" version="1.1" style="shape-rendering:geometricPrecision; text-rendering:geometricPrecision; image-rendering:optimizeQuality; fill-rule:evenodd; clip-rule:evenodd"
viewBox="0 0 1011 829"
 xmlns:xlink="http://www.w3.org/1999/xlink">
 <defs>
  <style type="text/css">
   <![CDATA[
    .fil0 {fill:black}
   ]]>
  </style>
 </defs>
 <g id="Слой_x0020_1">
  <metadata id="CorelCorpID_0Corel-Layer"/>
  <g id="_871172752">
   <g>
    <path class="fil0" d="M1010 228c0,4 0,7 -1,11l-49 289c-2,11 -8,21 -16,27 -8,6 -18,10 -29,10 0,0 0,0 -1,0l-2 0c0,0 0,0 -1,0 0,0 0,0 -1,0l-499 -10c-4,0 -7,-1 -11,-1 -1,6 -3,11 -6,17 -6,12 -17,24 -33,31 -10,4 -17,16 -17,27 0,7 2,12 7,17 5,5 15,9 34,9 78,0 519,1 519,1 11,0 19,9 19,19 0,11 -9,19 -19,19 0,0 -1,0 -4,0 0,0 0,0 0,0 0,0 -7,0 -19,0l-31 0c27,10 46,35 46,66 0,39 -31,70 -70,70 -39,0 -70,-31 -70,-70 0,-31 20,-56 47,-66l-31 0c-32,0 -67,0 -103,0 -52,0 -105,0 -152,0l-33 0c28,9 49,35 49,66 0,39 -31,70 -70,70 -39,0 -70,-31 -70,-70 0,-31 21,-58 49,-67l-34 0c-11,0 -21,0 -27,0 -25,0 -45,-6 -59,-19 -14,-12 -21,-29 -21,-46 0,-26 15,-50 40,-62 8,-4 12,-8 14,-13 3,-5 4,-11 3,-17 0,-5 -1,-10 -1,-12 -2,-5 -10,-26 -21,-58 -13,-35 -30,-83 -48,-132 -35,-98 -72,-200 -79,-218 -5,-14 -14,-22 -21,-28 -7,-5 -12,-7 -14,-8l-100 -25c-7,3 -16,4 -25,4 -28,0 -51,-13 -51,-30 0,-17 23,-30 51,-30 23,0 42,9 48,22l91 23 0 0c1,0 12,4 24,12 12,9 27,24 36,46 1,2 2,5 3,9l7 26 132 380c0,0 398,5 517,9 7,0 20,-13 21,-20 14,-72 39,-221 53,-297 4,-22 21,-28 27,-11 3,7 0,20 0,28z"/>
   </g>
   <g>
   </g>
   <g>
   </g>
   <g>
   </g>
   <g>
   </g>
   <g>
   </g>
   <g>
   </g>
   <g>
   </g>
   <g>
   </g>
   <g>
   </g>
   <g>
   </g>
   <g>
   </g>
   <g>
   </g>
   <g>
   </g>
   <g>
   </g>
   <g>
   </g>
  </g>
 </g>
</svg>
