<?xml version="1.0" encoding="UTF-8"?>
<!DOCTYPE svg PUBLIC "-//W3C//DTD SVG 1.1//EN" "http://www.w3.org/Graphics/SVG/1.1/DTD/svg11.dtd">
<!-- Creator: CorelDRAW X6 -->
<svg xmlns="http://www.w3.org/2000/svg" xml:space="preserve" width="117.952mm" height="117.952mm" version="1.1" style="shape-rendering:geometricPrecision; text-rendering:geometricPrecision; image-rendering:optimizeQuality; fill-rule:evenodd; clip-rule:evenodd"
viewBox="0 0 655 655"
 xmlns:xlink="http://www.w3.org/1999/xlink">
 <defs>
  <style type="text/css">
   <![CDATA[
    .fil0 {fill:#2B2A29}
   ]]>
  </style>
 </defs>
 <g id="Слой_x0020_1">
  <metadata id="CorelCorpID_0Corel-Layer"/>
  <g id="_871175024">
   <path class="fil0" d="M177 503c112,-16 189,-15 301,1 17,2 29,17 29,34 0,8 -3,15 -8,21 -9,11 -18,21 -26,31l43 0c3,-3 5,-7 8,-10 10,-12 15,-27 15,-42 0,-33 -24,-62 -57,-66 -115,-16 -195,-17 -311,-1 -34,5 -58,34 -58,67 0,15 5,29 14,41 3,4 5,7 8,10l42 0c-8,-9 -16,-19 -24,-30 -5,-6 -7,-14 -7,-21 0,-18 13,-32 30,-35z"/>
   <path class="fil0" d="M327 344c54,0 98,-44 98,-98 0,-54 -44,-98 -98,-98 -54,0 -98,44 -98,98 0,54 44,98 98,98zm0 33c72,0 131,-59 131,-131 0,-72 -59,-131 -131,-131 -72,0 -131,59 -131,131 0,72 59,131 131,131z"/>
   <path class="fil0" d="M327 622c163,0 295,-132 295,-295 0,-163 -132,-295 -295,-295 -163,0 -295,132 -295,295 0,163 132,295 295,295zm0 33c181,0 327,-147 327,-327 0,-181 -147,-327 -327,-327 -181,0 -327,147 -327,327 0,181 147,327 327,327z"/>
  </g>
 </g>
</svg>
